<svg width="20" height="20" viewBox="0 0 20 20" fill="none" xmlns="http://www.w3.org/2000/svg">
<path d="M1.04169 1.66699C1.04169 1.32182 1.32151 1.04199 1.66669 1.04199H8.33335C8.67852 1.04199 8.95835 1.32182 8.95835 1.66699V8.33366C8.95835 8.67883 8.67852 8.95866 8.33335 8.95866H1.66669C1.32151 8.95866 1.04169 8.67883 1.04169 8.33366V1.66699Z" fill="white"/>
<path d="M11.0417 1.66699C11.0417 1.32182 11.3215 1.04199 11.6667 1.04199H18.3334C18.6785 1.04199 18.9584 1.32182 18.9584 1.66699V8.33366C18.9584 8.67883 18.6785 8.95866 18.3334 8.95866H11.6667C11.3215 8.95866 11.0417 8.67883 11.0417 8.33366V1.66699Z" fill="white"/>
<path d="M1.04169 11.667C1.04169 11.3218 1.32151 11.042 1.66669 11.042H8.33335C8.67852 11.042 8.95835 11.3218 8.95835 11.667V18.3337C8.95835 18.6788 8.67852 18.9587 8.33335 18.9587H1.66669C1.32151 18.9587 1.04169 18.6788 1.04169 18.3337V11.667Z" fill="white"/>
<path d="M11.0417 11.667C11.0417 11.3218 11.3215 11.042 11.6667 11.042H18.3334C18.6785 11.042 18.9584 11.3218 18.9584 11.667V18.3337C18.9584 18.6788 18.6785 18.9587 18.3334 18.9587H11.6667C11.3215 18.9587 11.0417 18.6788 11.0417 18.3337V11.667Z" fill="white"/>
</svg>
