<svg width="20" height="20" viewBox="0 0 20 20" fill="none" xmlns="http://www.w3.org/2000/svg">
<path d="M4.59924 8.54943L5.3727 8.93618C5.65502 9.07734 5.83335 9.36593 5.83335 9.68151V13.6515C5.83335 13.9671 5.65502 14.2557 5.3727 14.3968L4.59924 14.7836C4.33175 14.9173 4.01286 14.8975 3.77679 14.7139C3.07391 14.1673 1.66669 12.9169 1.66669 11.6665C1.66669 10.4161 3.07391 9.16568 3.77679 8.61909C4.01286 8.43551 4.33175 8.41568 4.59924 8.54943Z" stroke="#FAF9F8" stroke-opacity="0.8" stroke-width="1.25" stroke-linecap="round" stroke-linejoin="round"/>
<path d="M3.33331 8.75033V8.33366C3.33331 4.65176 6.31808 1.66699 9.99998 1.66699C13.6819 1.66699 16.6666 4.65176 16.6666 8.33366V8.75033" stroke="#FAF9F8" stroke-opacity="0.8" stroke-width="1.25" stroke-linecap="round" stroke-linejoin="round"/>
<path d="M16.6667 14.583V14.9997C16.6667 16.8406 15.1742 18.333 13.3333 18.333H10" stroke="#FAF9F8" stroke-opacity="0.8" stroke-width="1.25" stroke-linecap="round" stroke-linejoin="round"/>
<path d="M16.2233 8.61909C15.9872 8.43551 15.6683 8.41568 15.4008 8.54943L14.6274 8.93618C14.345 9.07734 14.1667 9.36593 14.1667 9.68151V13.6515C14.1667 13.9671 14.345 14.2557 14.6274 14.3968L15.4008 14.7836C15.6683 14.9173 15.9872 14.8975 16.2233 14.7139C16.9261 14.1673 18.3334 12.9169 18.3334 11.6665C18.3334 10.4161 16.9261 9.16568 16.2233 8.61909Z" stroke="#FAF9F8" stroke-opacity="0.8" stroke-width="1.25" stroke-linecap="round" stroke-linejoin="round"/>
</svg>
