<svg width="24" height="26" viewBox="0 0 24 26" fill="none" xmlns="http://www.w3.org/2000/svg">
<g filter="url(#filter0_d_24_857)">
<path d="M5.33331 14.5385V5.71221C5.33331 3.33387 5.33331 2.1447 6.06555 1.40585C6.79778 0.666992 7.97629 0.666992 10.3333 0.666992H13.6666C16.0236 0.666992 17.2021 0.666992 17.9344 1.40585C18.6666 2.1447 18.6666 3.33387 18.6666 5.71221V14.5385C18.6666 15.7982 18.6666 16.4281 18.2816 16.676C17.6526 17.0812 16.6801 16.2315 16.1909 15.9231C15.7867 15.6682 15.5847 15.5407 15.3604 15.5334C15.1181 15.5254 14.9124 15.6477 14.4757 15.9231L12.8833 16.9273C12.4537 17.1982 12.239 17.3337 12 17.3337C11.761 17.3337 11.5462 17.1982 11.1166 16.9273L9.52425 15.9231C9.1201 15.6682 8.91803 15.5407 8.69375 15.5334C8.45141 15.5254 8.24575 15.6477 7.80904 15.9231C7.31994 16.2315 6.34737 17.0812 5.71827 16.676C5.33331 16.4281 5.33331 15.7982 5.33331 14.5385Z" stroke="#FAF9F8" stroke-opacity="0.8" stroke-width="1.25" stroke-linecap="round" stroke-linejoin="round" shape-rendering="crispEdges"/>
</g>
<defs>
<filter id="filter0_d_24_857" x="0.708313" y="0.0419922" width="22.5833" height="25.917" filterUnits="userSpaceOnUse" color-interpolation-filters="sRGB">
<feFlood flood-opacity="0" result="BackgroundImageFix"/>
<feColorMatrix in="SourceAlpha" type="matrix" values="0 0 0 0 0 0 0 0 0 0 0 0 0 0 0 0 0 0 127 0" result="hardAlpha"/>
<feOffset dy="4"/>
<feGaussianBlur stdDeviation="2"/>
<feComposite in2="hardAlpha" operator="out"/>
<feColorMatrix type="matrix" values="0 0 0 0 0 0 0 0 0 0 0 0 0 0 0 0 0 0 0.25 0"/>
<feBlend mode="normal" in2="BackgroundImageFix" result="effect1_dropShadow_24_857"/>
<feBlend mode="normal" in="SourceGraphic" in2="effect1_dropShadow_24_857" result="shape"/>
</filter>
</defs>
</svg>
