<svg width="16" height="18" viewBox="0 0 16 18" fill="none" xmlns="http://www.w3.org/2000/svg">
<path d="M5.24375 17.125H1.75C1.66712 17.125 1.58763 17.0921 1.52903 17.0335C1.47042 16.9749 1.4375 16.8954 1.4375 16.8125V7.36656L8 2.50781L14.5625 7.36656V8.0125C14.5625 8.09538 14.5954 8.17487 14.654 8.23347C14.7126 8.29208 14.7921 8.325 14.875 8.325C14.9579 8.325 15.0374 8.29208 15.096 8.23347C15.1546 8.17487 15.1875 8.09538 15.1875 8.0125V7.20938C15.1875 7.16052 15.1761 7.11234 15.1541 7.0687C15.1321 7.02507 15.1002 6.9872 15.0609 6.95813L8.18594 1.8675C8.13213 1.82767 8.06695 1.80616 8 1.80616C7.93305 1.80616 7.86787 1.82767 7.81406 1.8675L0.939062 6.95813C0.899794 6.9872 0.867889 7.02507 0.845909 7.0687C0.823929 7.11234 0.812487 7.16052 0.8125 7.20938V16.8125C0.812748 17.0611 0.9116 17.2994 1.08736 17.4751C1.26312 17.6509 1.50144 17.7498 1.75 17.75H5.24375C5.32663 17.75 5.40612 17.7171 5.46472 17.6585C5.52333 17.5999 5.55625 17.5204 5.55625 17.4375C5.55625 17.3546 5.52333 17.2751 5.46472 17.2165C5.40612 17.1579 5.32663 17.125 5.24375 17.125ZM1.125 4.4125C1.20788 4.4125 1.28737 4.37958 1.34597 4.32097C1.40458 4.26237 1.4375 4.18288 1.4375 4.1V1.5H3.3125V2.24688C3.3125 2.32976 3.34542 2.40924 3.40403 2.46785C3.46263 2.52645 3.54212 2.55938 3.625 2.55938C3.70788 2.55938 3.78737 2.52645 3.84597 2.46785C3.90458 2.40924 3.9375 2.32976 3.9375 2.24688V1.1875C3.9375 1.10462 3.90458 1.02513 3.84597 0.966529C3.78737 0.907924 3.70788 0.875 3.625 0.875H1.125C1.04212 0.875 0.962634 0.907924 0.904029 0.966529C0.845424 1.02513 0.8125 1.10462 0.8125 1.1875V4.1C0.8125 4.18288 0.845424 4.26237 0.904029 4.32097C0.962634 4.37958 1.04212 4.4125 1.125 4.4125Z" fill="#FAF9F8" fill-opacity="0.8"/>
</svg>
