<svg width="25" height="24" viewBox="0 0 25 24" fill="none" xmlns="http://www.w3.org/2000/svg">
<path d="M2.78725 14.394C2.5746 15.7471 3.52533 16.6862 4.68938 17.1542C9.15214 18.9486 15.3625 18.9486 19.8252 17.1542C20.9893 16.6862 21.94 15.7471 21.7274 14.394C21.5967 13.5625 20.9505 12.8701 20.4717 12.194C19.8446 11.2975 19.7823 10.3197 19.7822 9.27941C19.7822 5.2591 16.4132 2 12.2573 2C8.10146 2 4.73246 5.2591 4.73246 9.27941C4.73236 10.3197 4.67005 11.2975 4.04294 12.194C3.56417 12.8701 2.91794 13.5625 2.78725 14.394Z" stroke="#19111D" stroke-width="1.5" stroke-linecap="round" stroke-linejoin="round"/>
<path d="M9.25732 21C10.0535 21.6219 11.1048 22 12.2573 22C13.4098 22 14.4612 21.6219 15.2573 21" stroke="#19111D" stroke-width="1.5" stroke-linecap="round" stroke-linejoin="round"/>
</svg>
