<svg width="32" height="32" viewBox="0 0 32 32" fill="none" xmlns="http://www.w3.org/2000/svg">
<rect width="32" height="32" rx="16" fill="#5B3C6A" fill-opacity="0.14"/>
<path fill-rule="evenodd" clip-rule="evenodd" d="M13.4248 10.4778C13.5187 9.82091 14.0813 9.33301 14.7448 9.33301H17.5884C18.2519 9.33301 18.8145 9.82091 18.9083 10.4778L19.1599 12.2387C19.2119 12.6032 18.9587 12.9409 18.5942 12.993C18.2297 13.045 17.892 12.7918 17.8399 12.4273L17.5884 10.6663H14.7448L14.4932 12.4273C14.4411 12.7918 14.1035 13.045 13.739 12.993C13.3745 12.9409 13.1212 12.6032 13.1733 12.2387L13.4248 10.4778Z" fill="#5B3C6A"/>
<path fill-rule="evenodd" clip-rule="evenodd" d="M10.5002 11.833C9.85583 11.833 9.3335 12.3553 9.3335 12.9997V15.3095C9.3335 15.6996 9.52845 16.0639 9.85301 16.2803L12.3882 17.9704C12.5798 18.0981 12.805 18.1663 13.0353 18.1663H19.2983C19.5286 18.1663 19.7538 18.0981 19.9454 17.9704L22.4806 16.2803C22.8052 16.0639 23.0002 15.6996 23.0002 15.3095V12.9997C23.0002 12.3553 22.4778 11.833 21.8335 11.833H10.5002ZM16.1668 14.9997C15.7986 14.9997 15.5002 15.2981 15.5002 15.6663C15.5002 16.0345 15.7986 16.333 16.1668 16.333H16.1728C16.541 16.333 16.8395 16.0345 16.8395 15.6663C16.8395 15.2981 16.541 14.9997 16.1728 14.9997H16.1668Z" fill="#5B3C6A"/>
<path d="M10.0024 17.5823V21.3339C10.0024 22.3463 10.8232 23.1672 11.8358 23.1672H20.5005C21.513 23.1672 22.3338 22.3463 22.3338 21.3339V17.5811L20.5005 18.8033C20.1446 19.0405 19.7264 19.1672 19.2986 19.1672H13.0357C12.6079 19.1672 12.1897 19.0405 11.8338 18.8033L10.0024 17.5823Z" fill="#5B3C6A"/>
</svg>
