<svg width="24" height="25" viewBox="0 0 24 25" fill="none" xmlns="http://www.w3.org/2000/svg">
<rect y="0.5" width="24" height="24" rx="12" fill="#5B3C6A" fill-opacity="0.14"/>
<path fill-rule="evenodd" clip-rule="evenodd" d="M10.0688 8.35858C10.1391 7.86593 10.5611 7.5 11.0587 7.5H13.1914C13.6891 7.5 14.111 7.86593 14.1814 8.35858L14.37 9.67929C14.4091 9.95266 14.2191 10.2059 13.9458 10.245C13.6724 10.284 13.4191 10.0941 13.3801 9.82071L13.1914 8.5H11.0587L10.87 9.82071C10.831 10.0941 10.5777 10.284 10.3043 10.245C10.031 10.2059 9.84103 9.95266 9.88009 9.67929L10.0688 8.35858Z" fill="#5B3C6A"/>
<path fill-rule="evenodd" clip-rule="evenodd" d="M7.875 9.375C7.39175 9.375 7 9.76675 7 10.25V11.9824C7 12.275 7.14621 12.5482 7.38963 12.7105L9.29102 13.9781C9.43476 14.0739 9.60364 14.125 9.77639 14.125H14.4736C14.6464 14.125 14.8152 14.0739 14.959 13.9781L16.8603 12.7105C17.1038 12.5482 17.25 12.275 17.25 11.9824V10.25C17.25 9.76675 16.8582 9.375 16.375 9.375H7.875ZM12.125 11.75C11.8489 11.75 11.625 11.9739 11.625 12.25C11.625 12.5261 11.8489 12.75 12.125 12.75H12.1295C12.4057 12.75 12.6295 12.5261 12.6295 12.25C12.6295 11.9739 12.4057 11.75 12.1295 11.75H12.125Z" fill="#5B3C6A"/>
<path d="M7.50195 13.6865V16.5001C7.50195 17.2595 8.11756 17.8751 8.87695 17.8751H15.3755C16.1349 17.8751 16.7505 17.2595 16.7505 16.5001V13.6855L15.3755 14.6022C15.1085 14.7801 14.7949 14.8751 14.4741 14.8751H9.77687C9.45606 14.8751 9.14242 14.7801 8.87549 14.6022L7.50195 13.6865Z" fill="#5B3C6A"/>
</svg>
