<svg width="24" height="25" viewBox="0 0 24 25" fill="none" xmlns="http://www.w3.org/2000/svg">
<rect y="0.5" width="24" height="24" rx="12" fill="#5B3C6A" fill-opacity="0.14"/>
<path fill-rule="evenodd" clip-rule="evenodd" d="M12.1677 7.03959C12.0622 6.9868 11.9378 6.9868 11.8323 7.03959L6.8323 9.53959C6.70525 9.60311 6.625 9.73296 6.625 9.875V11.25H17.375V9.875C17.375 9.73296 17.2948 9.60311 17.1677 9.53959L12.1677 7.03959ZM12.5 9.375H11.5V10.375H12.5V9.375Z" fill="#5B3C6A"/>
<path d="M6.62524 16.125C6.62524 15.9179 6.79313 15.75 7.00024 15.75H17.0002C17.0997 15.75 17.1951 15.7895 17.2654 15.8598C17.3357 15.9302 17.3752 16.0255 17.3752 16.125L17.3751 17.375C17.3751 17.5821 17.2072 17.75 17.0001 17.75H7.00024C6.79313 17.75 6.62524 17.5821 6.62524 17.375V16.125Z" fill="#5B3C6A"/>
<path d="M16.375 12H13.625V15H16.375V12Z" fill="#5B3C6A"/>
<path d="M10.375 12H7.625V15H10.375V12Z" fill="#5B3C6A"/>
</svg>
