<svg width="16" height="17" viewBox="0 0 16 17" fill="none" xmlns="http://www.w3.org/2000/svg">
<path d="M14.3627 7.86301C14.5654 8.14721 14.6667 8.28934 14.6667 8.49967C14.6667 8.71001 14.5654 8.85214 14.3627 9.13634C13.452 10.4134 11.1262 13.1663 8.00004 13.1663C4.87389 13.1663 2.54811 10.4134 1.6374 9.13634C1.43471 8.85214 1.33337 8.71001 1.33337 8.49967C1.33337 8.28934 1.43471 8.14721 1.6374 7.86301C2.54811 6.58597 4.87389 3.83301 8.00004 3.83301C11.1262 3.83301 13.452 6.58597 14.3627 7.86301Z" stroke="#AAAAAA" stroke-opacity="0.6"/>
<path d="M10 8.5C10 7.3954 9.1046 6.5 8 6.5C6.8954 6.5 6 7.3954 6 8.5C6 9.6046 6.8954 10.5 8 10.5C9.1046 10.5 10 9.6046 10 8.5Z" stroke="#AAAAAA" stroke-opacity="0.6"/>
</svg>
