<svg width="33" height="32" viewBox="0 0 33 32" fill="none" xmlns="http://www.w3.org/2000/svg">
<path d="M8.50008 26.667L7.16675 28.0003M24.5001 26.667L25.8334 28.0003" stroke="#323133" stroke-width="2" stroke-linecap="round"/>
<path d="M4.5 16V17.3333C4.5 21.7331 4.5 23.9329 5.86684 25.2999C7.23367 26.6667 9.43356 26.6667 13.8333 26.6667H19.1667C23.5664 26.6667 25.7663 26.6667 27.1332 25.2999C28.5 23.9329 28.5 21.7331 28.5 17.3333V16" stroke="#323133" stroke-width="1.5" stroke-linecap="round" stroke-linejoin="round"/>
<path d="M3.16675 16H29.8334" stroke="#323133" stroke-width="1.5" stroke-linecap="round"/>
<path d="M5.83325 16V7.36453C5.83325 5.50636 7.33961 4 9.19778 4C10.6888 4 12.002 4.98131 12.4244 6.41121L12.4999 6.66667" stroke="#323133" stroke-width="1.5" stroke-linecap="round"/>
<path d="M11.1667 7.99967L14.5001 5.33301" stroke="#323133" stroke-width="2" stroke-linecap="round"/>
</svg>
