<svg width="32" height="32" viewBox="0 0 32 32" fill="none" xmlns="http://www.w3.org/2000/svg">
<path d="M29.3334 23.333H2.66675" stroke="#323133" stroke-width="1.5" stroke-linecap="round" stroke-linejoin="round"/>
<path d="M29.3334 28V21.3333C29.3334 18.8192 29.3334 17.5621 28.5523 16.7811C27.7713 16 26.5142 16 24.0001 16H8.00008C5.48592 16 4.22884 16 3.4478 16.7811C2.66675 17.5621 2.66675 18.8192 2.66675 21.3333V28" stroke="#323133" stroke-width="1.5" stroke-linecap="round" stroke-linejoin="round"/>
<path d="M21.3334 16V14.1571C21.3334 13.4804 21.2114 13.2541 20.5862 12.9873C19.2842 12.4319 17.7038 12 16.0001 12C14.2963 12 12.7159 12.4319 11.4139 12.9873C10.7888 13.2541 10.6667 13.4804 10.6667 14.1571V16" stroke="#323133" stroke-width="1.5" stroke-linecap="round"/>
<path d="M4 16V12C4 10.1144 4 9.17157 4.58579 8.58579C5.17157 8 6.11439 8 8 8C8.36633 8 8.8758 8.09696 9.20376 7.92016C9.35187 7.84033 9.48465 7.63851 9.75025 7.23488C11.0256 5.29663 13.6328 4 16 4C18.3672 4 20.9744 5.29663 22.2497 7.23488C22.5153 7.63851 22.6481 7.84033 22.7963 7.92016C23.1243 8.09696 23.6336 8 24 8C25.8856 8 26.8284 8 27.4143 8.58579C28 9.17157 28 10.1144 28 12V16" stroke="#323133" stroke-width="1.5"/>
</svg>
