<svg width="33" height="32" viewBox="0 0 33 32" fill="none" xmlns="http://www.w3.org/2000/svg">
<path d="M11.1666 22.667L9.83325 29.3337M21.8333 22.667L23.1666 29.3337" stroke="#323133" stroke-width="1.5" stroke-linecap="round" stroke-linejoin="round"/>
<path d="M16.5 17.333C14.4711 17.333 12.3257 17.723 10.644 18.2447C9.37773 18.6375 8.35912 20.429 8.51599 21.8834C8.57411 22.4222 8.99169 22.6663 9.43076 22.6663H23.5692C24.0083 22.6663 24.4259 22.4222 24.484 21.8834C24.6409 20.429 23.6223 18.6375 22.356 18.2447C20.6743 17.723 18.5289 17.333 16.5 17.333Z" stroke="#323133" stroke-width="1.5" stroke-linecap="round"/>
<path d="M21.5311 18.667C23.1832 16.5765 24.5 13.8239 24.5 11.1407C24.5 5.74082 20.9183 2.66699 16.5 2.66699C12.0817 2.66699 8.5 5.74082 8.5 11.1407C8.5 13.8239 9.81679 16.5765 11.4689 18.667" stroke="#323133" stroke-width="1.5"/>
<path d="M18.7263 2.66699C19.0046 4.17709 19.1666 6.09085 19.1666 8.36553C19.1666 11.591 18.6815 14.9043 18.0915 17.3337M14.2735 2.66699C13.9953 4.17709 13.8333 6.09085 13.8333 8.36553C13.8333 11.591 14.3183 14.9043 14.9083 17.3337" stroke="#323133" stroke-width="1.5"/>
</svg>
