<svg width="40" height="40" viewBox="0 0 40 40" fill="none" xmlns="http://www.w3.org/2000/svg">
<rect width="40" height="40" rx="20" fill="#5B3C6A" fill-opacity="0.05"/>
<path d="M13.3335 24.9833V18.089C13.3335 15.0611 13.3335 13.5472 14.3098 12.6066C15.2861 11.666 16.8575 11.666 20.0002 11.666C23.1428 11.666 24.7142 11.666 25.6905 12.6066C26.6668 13.5472 26.6668 15.0611 26.6668 18.089V24.9833C26.6668 26.9049 26.6668 27.8657 26.0228 28.2096C24.7756 28.8755 22.4362 26.6537 21.3252 25.9847C20.6808 25.5967 20.3587 25.4027 20.0002 25.4027C19.6417 25.4027 19.3195 25.5967 18.6752 25.9847C17.5642 26.6537 15.2247 28.8755 13.9775 28.2096C13.3335 27.8657 13.3335 26.9049 13.3335 24.9833Z" stroke="#19111D" stroke-width="1.25" stroke-linecap="round" stroke-linejoin="round"/>
</svg>
