<svg width="14" height="15" viewBox="0 0 14 15" fill="none" xmlns="http://www.w3.org/2000/svg">
<path d="M7.94366 12.4761C7.69073 12.713 7.35257 12.8454 7.00064 12.8454C6.64872 12.8454 6.31062 12.713 6.05763 12.4761C3.74093 10.2939 0.636277 7.85607 2.15032 4.31685C2.96895 2.40322 4.93403 1.17871 7.00064 1.17871C9.06728 1.17871 11.0324 2.40322 11.851 4.31685C13.3631 7.85164 10.2661 10.3014 7.94366 12.4761Z" stroke="#323133" stroke-opacity="0.8"/>
<path d="M9.04171 6.42839C9.04171 7.55597 8.12762 8.47005 7.00004 8.47005C5.87246 8.47005 4.95837 7.55597 4.95837 6.42839C4.95837 5.3008 5.87246 4.38672 7.00004 4.38672C8.12762 4.38672 9.04171 5.3008 9.04171 6.42839Z" stroke="#323133" stroke-opacity="0.8"/>
</svg>
