<svg width="15" height="16" viewBox="0 0 15 16" fill="none" xmlns="http://www.w3.org/2000/svg">
<path d="M8.75 7.07422C9.78556 7.07422 10.625 6.23475 10.625 5.19922C10.625 4.16369 9.78556 3.32422 8.75 3.32422" stroke="#5B3C6A" stroke-width="1.5"/>
<path d="M1.25 13.3242H10C10 10.908 8.04125 8.94922 5.625 8.94922C3.20876 8.94922 1.25 10.908 1.25 13.3242Z" stroke="#5B3C6A" stroke-width="1.5"/>
<path d="M11.25 12.6992H13.125C13.125 10.6282 11.4461 8.94922 9.375 8.94922" stroke="#5B3C6A" stroke-width="1.5"/>
<path d="M7.8125 4.88672C7.8125 6.09484 6.83312 7.07422 5.625 7.07422C4.41688 7.07422 3.4375 6.09484 3.4375 4.88672C3.4375 3.67859 4.41688 2.69922 5.625 2.69922C6.83312 2.69922 7.8125 3.67859 7.8125 4.88672Z" stroke="#5B3C6A" stroke-width="1.5"/>
</svg>
